<svg width="28" height="32" viewBox="0 0 28 32" fill="none" xmlns="http://www.w3.org/2000/svg">
<path d="M4.49998 30.25C6.24888 30.25 7.66665 28.8322 7.66665 27.0833C7.66665 25.3344 6.24888 23.9167 4.49998 23.9167C2.75108 23.9167 1.33331 25.3344 1.33331 27.0833C1.33331 28.8322 2.75108 30.25 4.49998 30.25Z" stroke="white" stroke-width="2" stroke-linecap="round" stroke-linejoin="round"/>
<path d="M21.9167 30.25C23.6656 30.25 25.0833 28.8322 25.0833 27.0833C25.0833 25.3344 23.6656 23.9167 21.9167 23.9167C20.1678 23.9167 18.75 25.3344 18.75 27.0833C18.75 28.8322 20.1678 30.25 21.9167 30.25Z" stroke="white" stroke-width="2" stroke-linecap="round" stroke-linejoin="round"/>
<path d="M21.9166 23.9167H4.49998V1.75H1.33331" stroke="white" stroke-width="2" stroke-linecap="round" stroke-linejoin="round"/>
<path d="M4.5 4.91666L26.6667 6.49999L25.0833 17.5833H4.5" stroke="white" stroke-width="2" stroke-linecap="round" stroke-linejoin="round"/>
</svg>
