<svg width="100" height="100" viewBox="0 0 100 100" fill="none" xmlns="http://www.w3.org/2000/svg">
<circle cx="50" cy="50" r="50" fill="#757575"/>
<path d="M47.725 71.525C47.175 71.525 46.725 71.35 46.375 71C46.025 70.6 45.85 70.15 45.85 69.65V55.925H32.5C31.95 55.925 31.475 55.75 31.075 55.4C30.725 55.05 30.55 54.6 30.55 54.05V48.575C30.55 48.025 30.725 47.575 31.075 47.225C31.475 46.825 31.95 46.625 32.5 46.625H45.85V33.35C45.85 32.8 46.025 32.35 46.375 32C46.725 31.65 47.175 31.475 47.725 31.475H53.875C54.375 31.475 54.8 31.65 55.15 32C55.55 32.35 55.75 32.8 55.75 33.35V46.625H69.025C69.575 46.625 70.025 46.825 70.375 47.225C70.725 47.575 70.9 48.025 70.9 48.575V54.05C70.9 54.6 70.725 55.05 70.375 55.4C70.025 55.75 69.575 55.925 69.025 55.925H55.75V69.65C55.75 70.15 55.55 70.6 55.15 71C54.8 71.35 54.375 71.525 53.875 71.525H47.725Z" fill="white"/>
</svg>
