<svg width="28" height="33" viewBox="0 0 28 33" fill="none" xmlns="http://www.w3.org/2000/svg">
<path d="M4.50001 31.875C6.24891 31.875 7.66668 30.3453 7.66668 28.4583C7.66668 26.5714 6.24891 25.0417 4.50001 25.0417C2.75111 25.0417 1.33334 26.5714 1.33334 28.4583C1.33334 30.3453 2.75111 31.875 4.50001 31.875Z" stroke="black" stroke-width="2" stroke-linecap="round" stroke-linejoin="round"/>
<path d="M21.9167 31.875C23.6656 31.875 25.0833 30.3453 25.0833 28.4583C25.0833 26.5714 23.6656 25.0417 21.9167 25.0417C20.1678 25.0417 18.75 26.5714 18.75 28.4583C18.75 30.3453 20.1678 31.875 21.9167 31.875Z" stroke="black" stroke-width="2" stroke-linecap="round" stroke-linejoin="round"/>
<path d="M21.9167 25.0417H4.50001V1.125H1.33334" stroke="black" stroke-width="2" stroke-linecap="round" stroke-linejoin="round"/>
<path d="M4.5 4.54167L26.6667 6.25001L25.0833 18.2083H4.5" stroke="black" stroke-width="2" stroke-linecap="round" stroke-linejoin="round"/>
</svg>
